# xmcd
#
# Track frame offsets: 
#        150
#        15245
#        17215
#        29127
#        39227
#        39917
#        57630
#        67870
#        82482
#        94265
#        109217
#        118657
#        133762
#        149130
#        163972
#        164665
#
# Disc length: 2473 seconds
#
# Revision: 3
# Processed by: cddbd v1.5.2PL0 Copyright (c) Steve Scherf et al.
# Submitted via: ExactAudioCopy v1.3
#
DISCID=ed09a710
DTITLE=Tom Morrell and The Time Warp Tophands - How The West Was Swung -
DTITLE=Vol.1
DYEAR=1990
DGENRE=Instrumental
TTITLE0=Steelin' Home
TTITLE1=Stampede At Midnight
TTITLE2=Texas Blues
TTITLE3=Can't Go On This Way
TTITLE4=Lonesome Coyotes
TTITLE5=Oh, Lonesome Me
TTITLE6=Sweet Kind Of Love
TTITLE7=Hang Your Head In Shame
TTITLE8=Honeysuckle Rose
TTITLE9=Curtain Call
TTITLE10=Mr. Steel Guitar
TTITLE11=Misery
TTITLE12=Son Of Misery
TTITLE13=I Didn't Realise
TTITLE14=New Jersey Coyotes
TTITLE15=Roundup Time In Texas
EXTD=WR Records  CD-001
EXTT0=
EXTT1=
EXTT2=
EXTT3=
EXTT4=
EXTT5=
EXTT6=
EXTT7=
EXTT8=
EXTT9=
EXTT10=
EXTT11=
EXTT12=
EXTT13=
EXTT14=
EXTT15=
PLAYORDER=
